<svg xmlns="http://www.w3.org/2000/svg" viewBox="0 0 284.89 104.61"><defs><style>.cls-1{fill:#ddd;}.cls-2{fill:#2b70d6;}.cls-3{fill:#2ac6ea;}</style></defs><g id="Capa_2" data-name="Capa 2"><g id="Capa_1-2" data-name="Capa 1"><polygon class="cls-1" points="166.07 0 161.78 104.61 194.06 104.61 198.35 0 166.07 0"/><polygon class="cls-1" points="209.34 0 205.05 104.61 237.33 104.61 241.62 0 209.34 0"/><polygon class="cls-1" points="36.4 104.61 83.95 0 47.56 0 0 104.61 36.4 104.61"/><polygon class="cls-2" points="12.82 76.4 0 104.61 107.53 104.61 120.35 76.4 12.82 76.4"/><polygon class="cls-2" points="137.72 38.2 30.19 38.2 17.37 66.4 124.9 66.4 137.72 38.2"/><polygon class="cls-2" points="155.09 0 47.56 0 34.74 28.2 142.27 28.2 155.09 0"/><polygon class="cls-3" points="237.33 104.61 284.89 0 252.61 0 205.05 104.61 237.33 104.61"/><polygon class="cls-3" points="194.06 104.61 241.62 0 209.34 0 161.78 104.61 194.06 104.61"/><polygon class="cls-3" points="150.8 104.61 198.35 0 166.07 0 118.52 104.61 150.8 104.61"/></g></g></svg>